<svg width="512" height="512" viewBox="0 0 512 512" fill="none" xmlns="http://www.w3.org/2000/svg">
  <!-- TenorClaw TC Logo -->
  <rect width="512" height="512" fill="black"/>
  <g transform="translate(56, 128)">
    <!-- Letter T -->
    <path d="M0,0 L200,0 L200,40 L120,40 L120,256 L80,256 L80,40 L0,40 Z" fill="white"/>
    <!-- Letter C -->
    <path d="M320,0 C272,0 240,28 228,64 C216,100 216,156 228,192 C240,228 272,256 320,256 C356,256 380,240 396,216 L396,176 C380,204 356,216 328,216 C296,216 272,196 264,168 C256,140 256,116 264,88 C272,60 296,40 328,40 C356,40 380,52 396,80 L396,40 C380,16 356,0 320,0 Z" fill="white"/>
  </g>
</svg>
