<svg width="22" height="22" viewBox="0 0 22 22" fill="none" xmlns="http://www.w3.org/2000/svg">
  <!-- TenorClaw TC tray icon -->
  <g transform="translate(1, 4)">
    <!-- T -->
    <path d="M0,0 L8,0 L8,1.5 L5,1.5 L5,14 L3,14 L3,1.5 L0,1.5 Z" fill="black"/>
    <!-- C -->
    <path d="M14,0 C11.5,0 10,1.5 9.5,3.5 C9,5.5 9,8.5 9.5,10.5 C10,12.5 11.5,14 14,14 C15.5,14 17,13.2 17.5,11.5 L17.5,9.5 C17,11.2 15.5,12 14,12 C12.5,12 11.3,10.8 11,9.5 C10.7,8.2 10.7,5.8 11,4.5 C11.3,3.2 12.5,2 14,2 C15.5,2 17,2.8 17.5,4.5 L17.5,2.5 C17,0.8 15.5,0 14,0 Z" fill="black"/>
  </g>
</svg>
