<svg xmlns="http://www.w3.org/2000/svg" viewBox="0 0 512 512" fill="currentColor">
  <!--
    TC Monogram
    The T's right vertical edge and the C's left vertical edge share space.
    Serif-style letterforms. Transparent background. Uses currentColor.
  -->

  <!-- T: top crossbar with serifs -->
  <path d="
    M 52 76
    L 52 108
    L 72 108
    L 72 92
    L 148 92
    L 148 370
    L 120 370
    L 120 390
    L 104 390
    L 104 424
    L 232 424
    L 232 390
    L 216 390
    L 216 370
    L 188 370
    L 188 92
    L 264 92
    L 264 108
    L 284 108
    L 284 76
    Z
  "/>

  <!-- C: serif-style C sharing the vertical with T -->
  <path d="
    M 350 76
    C 256 76, 188 148, 188 256
    C 188 364, 256 436, 350 436
    L 420 436
    L 420 402
    L 404 402
    L 404 380
    L 350 380
    C 286 380, 236 330, 236 256
    C 236 182, 286 132, 350 132
    L 404 132
    L 404 110
    L 420 110
    L 420 76
    Z
  "/>
</svg>
